<?xml version="1.0" standalone="no"?>
<!DOCTYPE svg PUBLIC "-//W3C//DTD SVG 20010904//EN"
 "http://www.w3.org/TR/2001/REC-SVG-20010904/DTD/svg10.dtd">
<svg version="1.0" xmlns="http://www.w3.org/2000/svg"
 width="179.000000pt" height="179.000000pt" viewBox="0 0 179.000000 179.000000"
 preserveAspectRatio="xMidYMid meet">

<g transform="translate(0.000000,179.000000) scale(0.100000,-0.100000)"
fill="#000000" stroke="none">
<path d="M810 1724 c-167 -31 -324 -100 -434 -190 -362 -299 -408 -826 -102
-1182 107 -124 261 -221 421 -264 114 -30 297 -30 415 0 292 76 522 307 595
597 32 127 34 290 5 412 -67 282 -312 525 -605 603 -77 20 -242 34 -295 24z
m185 -78 c17 -14 54 -57 80 -96 36 -51 53 -69 64 -64 9 3 52 12 96 20 128 23
206 -6 240 -88 15 -36 14 -38 -5 -38 -11 0 -26 12 -34 29 -25 48 -62 65 -141
64 -96 -1 -159 -19 -149 -41 42 -98 74 -232 55 -232 -13 0 -17 9 -56 121 -40
117 -41 117 -110 91 -62 -24 -95 -28 -95 -11 0 9 62 40 122 62 16 6 16 9 -4
44 -13 21 -44 59 -70 86 -40 40 -53 47 -85 47 -33 0 -46 -7 -89 -52 -52 -54
-84 -96 -84 -110 0 -5 32 -22 70 -39 54 -24 68 -35 60 -44 -9 -11 -23 -8 -72
11 -34 13 -67 24 -74 24 -13 0 -40 -60 -74 -162 -12 -38 -26 -68 -31 -68 -17
0 -9 63 21 152 17 49 30 91 30 92 0 8 -36 17 -99 26 -172 24 -229 -48 -201
-252 10 -75 10 -92 -1 -99 -20 -12 -27 8 -40 112 -20 153 3 224 85 266 39 20
149 19 226 -1 30 -9 55 -14 55 -13 19 38 75 112 108 146 68 66 131 71 202 17z
m-61 -55 c33 -36 -4 -82 -53 -66 -44 14 -27 85 19 85 9 0 25 -9 34 -19z m66
-262 c53 -12 107 -51 121 -87 13 -34 12 -247 0 -271 -25 -46 -55 -53 -233 -57
-174 -4 -204 -11 -240 -50 -22 -25 -38 -88 -38 -148 l0 -48 -60 4 c-52 4 -65
9 -95 38 -83 81 -85 276 -4 344 l31 26 234 0 234 0 0 25 0 25 -140 0 -140 0 0
45 c0 109 73 162 225 164 33 0 80 -4 105 -10z m522 -16 c40 -36 13 -106 -41
-106 -57 0 -85 53 -50 96 24 31 63 35 91 10z m-52 -173 c0 -11 -4 -21 -9 -24
-13 -9 -32 19 -25 37 8 21 34 10 34 -13z m-991 -5 c-25 -13 -60 -40 -77 -59
-29 -33 -42 -32 -42 4 0 10 137 80 154 80 6 -1 -10 -12 -35 -25z m891 -10 c76
-38 83 -45 69 -65 -8 -12 -13 -10 -30 13 -12 15 -44 41 -73 57 -70 41 -51 38
34 -5z m-53 -40 c56 -33 84 -89 91 -175 5 -81 -11 -145 -48 -182 l-28 -28
-241 0 -241 0 0 -25 0 -25 140 0 140 0 0 -57 c0 -52 -3 -59 -39 -94 -59 -55
-164 -73 -283 -48 -41 9 -63 21 -96 55 l-44 43 4 129 c4 186 12 192 261 192
165 0 194 8 227 63 15 23 20 50 20 98 0 36 3 69 7 72 16 16 88 6 130 -18z
m-987 -30 c0 -7 -30 -34 -67 -58 -82 -53 -106 -78 -105 -112 0 -39 24 -66 100
-115 44 -28 72 -52 72 -63 0 -15 -8 -13 -61 13 -75 38 -146 102 -154 140 -13
61 39 126 150 183 59 31 65 32 65 12z m1229 -23 c25 -14 64 -43 88 -65 38 -35
43 -45 43 -83 0 -58 -45 -108 -140 -158 -60 -32 -71 -35 -76 -21 -8 19 -13 14
58 54 155 87 157 153 7 242 -38 23 -69 48 -69 56 0 18 28 10 89 -25z m-1303
-120 c32 -21 18 -72 -20 -72 -35 0 -52 25 -38 55 11 25 36 32 58 17z m1344 -6
c6 -8 10 -25 8 -38 -6 -42 -78 -32 -78 11 0 37 46 55 70 27z m-1118 -273 c32
-15 56 -29 54 -31 -7 -7 -176 76 -176 87 0 5 3 17 6 25 5 13 12 9 33 -19 15
-21 49 -46 83 -62z m962 62 c6 -16 -48 -48 -143 -84 -70 -26 -64 -17 12 17 34
16 73 41 86 56 28 30 37 32 45 11z m-1079 -54 c3 -5 0 -52 -6 -105 -11 -84
-10 -100 5 -140 26 -68 55 -86 138 -86 61 0 158 16 158 26 0 2 -11 36 -24 76
-31 96 -40 148 -26 148 6 0 15 -12 21 -27 34 -94 60 -160 68 -172 8 -12 20
-10 74 9 40 14 72 20 83 15 15 -6 8 -13 -41 -36 -33 -16 -66 -29 -72 -29 -23
0 -14 -27 26 -77 87 -108 129 -124 198 -74 38 28 122 136 112 144 -2 2 -31 14
-64 27 -71 27 -84 37 -62 46 9 3 45 -4 79 -15 76 -26 73 -28 119 100 17 49 36
86 40 83 5 -3 9 -11 9 -18 0 -14 -42 -159 -54 -188 -6 -13 2 -18 44 -27 28 -6
82 -11 120 -11 63 0 71 2 99 30 17 17 33 47 37 67 6 30 2 125 -9 218 -1 11 5
21 15 23 22 4 33 -59 33 -183 0 -76 -3 -96 -23 -126 -12 -20 -38 -44 -56 -53
-43 -20 -131 -20 -216 0 -64 15 -65 15 -80 -8 -101 -152 -172 -200 -253 -169
-39 15 -98 72 -135 131 -19 30 -36 56 -37 57 -1 2 -35 -4 -76 -13 -144 -30
-235 -7 -276 69 -37 70 -6 349 32 288z m573 -408 c12 -23 5 -40 -19 -53 -39
-22 -78 27 -47 58 18 18 56 15 66 -5z"/>
<path d="M730 1241 c-16 -32 4 -63 38 -59 24 3 27 7 27 38 0 31 -3 35 -27 38
-19 2 -30 -3 -38 -17z"/>
<path d="M530 1021 c0 -35 4 -43 25 -53 18 -8 35 -9 53 -2 23 8 27 15 27 47 0
47 -19 49 -23 2 -2 -27 -8 -35 -23 -35 -11 0 -19 7 -20 18 -1 9 -2 26 -3 37 0
11 -9 21 -18 23 -15 3 -18 -4 -18 -37z"/>
<path d="M690 1010 l0 -50 45 0 c25 0 45 5 45 10 0 6 -13 10 -30 10 -16 0 -30
5 -30 10 0 6 9 10 19 10 11 0 23 5 26 10 4 6 -5 10 -19 10 -14 0 -26 5 -26 10
0 6 14 10 30 10 17 0 30 5 30 10 0 6 -20 10 -45 10 l-45 0 0 -50z"/>
<path d="M820 1010 c0 -38 4 -50 15 -50 8 0 15 9 15 20 0 11 4 20 10 20 5 0
15 -9 22 -20 7 -11 18 -20 25 -20 16 0 16 6 3 31 -7 13 -7 19 0 19 5 0 10 8
10 19 0 20 -25 31 -72 31 -27 0 -28 -2 -28 -50z m70 20 c0 -5 -9 -10 -20 -10
-11 0 -20 5 -20 10 0 6 9 10 20 10 11 0 20 -4 20 -10z"/>
<path d="M976 1029 c16 -18 16 -20 -1 -39 -23 -25 -12 -39 14 -16 16 15 19 15
31 1 13 -15 40 -21 40 -7 0 4 -7 16 -15 26 -13 17 -13 22 1 37 14 15 11 17
-36 17 -49 0 -50 -1 -34 -19z"/>
<path d="M745 784 c16 -24 16 -27 -1 -45 -14 -15 -14 -19 -3 -19 8 0 20 5 27
12 9 9 15 9 24 0 7 -7 18 -12 26 -12 10 0 10 4 -2 22 -14 20 -14 24 1 40 21
23 8 36 -19 19 -14 -9 -23 -10 -31 -2 -6 6 -17 11 -25 11 -12 0 -11 -5 3 -26z"/>
<path d="M870 801 c0 -6 4 -13 10 -16 6 -4 5 -13 -3 -26 -16 -25 3 -39 56 -39
l37 0 0 45 c0 33 -4 45 -15 45 -8 0 -15 -7 -15 -15 0 -8 -6 -15 -14 -15 -8 0
-16 7 -20 15 -6 16 -36 21 -36 6z m70 -57 c0 -9 -7 -14 -17 -12 -25 5 -28 28
-4 28 12 0 21 -6 21 -16z"/>
<path d="M1038 803 c39 -5 43 -30 5 -36 l-28 -4 28 -2 c37 -1 31 -24 -9 -32
-24 -5 -20 -7 19 -8 l47 -1 0 45 0 45 -47 -2 c-37 -1 -40 -2 -15 -5z"/>
<path d="M1162 793 c-12 -25 -9 -65 5 -70 7 -3 13 10 15 34 2 30 7 38 23 38
16 0 21 -8 23 -37 2 -26 8 -38 18 -38 12 0 14 10 12 43 -3 42 -3 42 -45 45
-32 2 -44 -1 -51 -15z"/>
<path d="M1002 588 c-27 -27 -6 -68 35 -68 27 0 38 20 29 55 -7 27 -42 35 -64
13z"/>
</g>
</svg>
